<svg width="108" height="35" viewBox="0 0 108 35" fill="none" xmlns="http://www.w3.org/2000/svg">
<path d="M3.12939 14.505C6.20942 8.8119 11.5746 2.57427 17.9334 0.495064C19.2251 0.14853 20.9638 -0.198005 22.1064 0.693084C23.1496 1.43566 23.249 2.72279 23.0503 3.91091C22.7522 5.29704 21.8083 7.02972 20.2186 7.27724C19.9206 7.27724 19.6722 7.17823 19.5231 6.98021C19.1257 6.58417 19.1257 5.99011 19.2251 5.49506C19.4735 4.40596 20.5167 3.21784 21.6593 3.06932C21.858 2.8713 21.7586 2.62378 21.709 2.47526C21.5599 2.22774 21.3612 2.02972 21.0632 1.98021C19.7715 1.8317 18.8276 2.62378 17.8838 3.26734C14.2076 6.23764 11.525 10 9.23978 13.8119C7.4017 17.2277 5.812 20.7426 5.3649 24.703C5.11651 27.5743 6.06039 30.3961 8.64365 31.7822C11.4256 33.2673 15.0521 32.2772 17.8341 31.4852L20.4173 30.6931L25.3355 29.2079C30.0052 27.8218 35.8672 27.5248 40.4376 29.3565C43.2195 30.4951 46.0512 32.0792 47.8396 34.802C47.8396 34.8515 47.8396 34.9505 47.7402 34.9505C43.8157 33.8614 38.6988 32.8218 34.824 34.703L34.6252 34.6535C33.433 32.7723 31.4459 31.7327 29.4091 31.3366C22.8019 30.6931 17.387 33.8119 11.2269 34.604C8.09719 34.901 4.71908 34.802 2.53325 32.3763C-0.94421 28.9604 -0.497108 22.8713 1.14227 18.7129C1.7384 17.3267 2.43389 15.8911 3.12939 14.505Z" fill="#3C4C6A"/>
<path d="M12.2209 16.5347C13.8603 13.5644 16.3938 9.901 19.8713 8.81189C20.8152 8.61387 21.8087 8.71288 22.5042 9.30694C23.9946 10.7921 23.3984 13.3168 22.9017 15.099C22.9017 15.198 23.001 15.297 23.1004 15.3465C24.4417 15.297 25.4849 14.703 26.4785 13.7624C28.5153 11.4852 30.7508 8.46535 34.0792 8.81189C34.725 8.9109 35.3212 9.25743 35.6689 9.85149C36.5134 11.5347 35.6689 13.3663 34.5263 14.703C34.0792 15.1485 33.5327 15.4456 32.8869 15.2475C32.6385 15.1485 32.4398 14.901 32.3405 14.6535C32.0921 13.4654 32.7876 12.3762 33.7315 11.7822C33.9799 11.5347 34.8244 11.6832 34.6257 11.0891C34.4766 10.8416 34.1786 10.8416 33.9302 10.7921C32.2908 11.4852 31.2476 13.1188 30.3037 14.505C29.1114 16.3861 28.1675 18.3168 27.5217 20.4456C27.3727 21.1881 27.1243 22.1782 27.5714 22.8713C27.9191 23.3168 28.4159 23.5149 29.0121 23.3663C30.6017 22.7228 32.0424 21.4357 33.2844 20.099C36.116 16.7327 37.6063 12.5743 41.3819 9.80199C42.5742 9.00991 44.2135 8.36634 45.6045 9.10892C45.8529 9.20793 46.0019 9.50496 46.3 9.40595C46.5484 9.15842 46.6974 8.71288 47.1445 8.81189C48.1878 8.81189 49.38 8.76238 50.473 8.86139L50.5226 8.9604L50.2246 9.70298L44.3626 21.5842C44.2135 21.6337 44.1638 21.7822 44.2135 21.9307C44.3129 22.0792 44.5116 22.0792 44.6606 22.0297C45.5052 21.5347 46.151 20.6436 46.7471 19.901C47.2439 19.2079 47.7407 18.4654 48.0884 17.6733C48.2374 17.4258 48.4362 17.1782 48.7342 17.2277C49.082 17.2772 49.4794 17.1287 49.7278 17.3762C49.3304 18.3663 48.7839 19.2574 48.2374 20.198C46.6477 22.6238 44.5613 25.4951 41.6303 26.1881C41.1335 26.2376 40.5374 26.2871 40.1896 25.9406C39.6431 25.4951 39.5935 24.8515 39.4444 24.2079C39.3948 24.1584 39.2954 24.1089 39.196 24.1584C37.9541 25.297 36.6625 26.3861 34.9237 26.1881C34.3773 26.0891 33.8805 25.6436 33.6321 25.1485C33.185 24.2574 33.3837 23.1683 33.3837 22.1782C33.334 22.0792 33.185 22.1287 33.1353 22.1287C31.2476 24.0099 29.1611 25.6931 26.6275 26.1386C25.4352 26.2871 24.4417 25.9406 23.6468 25.099C21.7591 22.6238 23.2494 19.4059 24.243 16.9802C24.2926 16.8812 24.2926 16.7327 24.1436 16.6832C23.4481 16.7327 22.8023 16.8317 22.1565 16.9307L21.9081 17.1782C20.3681 20 18.7287 23.0198 15.9467 25.1485C14.8041 25.9901 13.1151 26.5347 11.7738 25.7921C10.3828 24.8515 10.2338 23.1188 10.4325 21.5347C10.8299 19.802 11.4757 18.1683 12.2209 16.5347ZM16.5925 16.3861C15.7977 18.0198 14.9532 19.6535 14.9532 21.5347C15.0525 21.8812 15.2512 22.3267 15.6487 22.4258C16.0958 22.5248 16.4435 22.3267 16.7416 22.0792C18.3313 20.7426 19.4242 18.9604 20.3184 17.2277C20.3681 17.0792 20.5171 16.8317 20.4178 16.6832C19.4739 16.2871 18.5797 15.6436 17.8345 14.8515H17.6855C17.5364 14.901 17.4868 15 17.3874 15.099L16.5925 16.3861ZM19.0764 13.1188C19.1261 13.9604 19.921 14.703 20.6661 15C20.8649 15.0495 21.1629 15.198 21.312 14.9505C21.61 14.4059 21.7591 13.8119 21.9081 13.2178C22.0571 12.4258 22.1565 11.3861 21.4113 10.8911C21.1629 10.7426 20.7655 10.7426 20.5171 10.8416C19.6726 11.2871 19.0268 12.1287 19.0764 13.1188ZM38.3515 19.7525C38.1528 20.4456 37.8051 21.2376 38.0534 22.0297C38.1031 22.1782 38.3018 22.2772 38.4509 22.3267C39.0967 22.3267 39.5438 21.7822 39.9412 21.2871C41.829 18.7129 43.2696 15.8911 44.5613 13.0693C44.76 12.4753 45.1077 11.9307 45.1077 11.2376C45.1077 11.0891 44.9587 10.9901 44.8593 10.9406C44.5613 10.7921 44.3129 10.9901 44.0645 11.1386C41.5309 13.0693 40.1896 15.8416 38.898 18.5149L38.3515 19.7525Z" fill="#3C4C6A"/>
<path d="M50.5727 12.4258C51.1191 11.3366 51.6159 10.1485 52.3114 9.10892C52.6095 8.81189 53.0566 8.8119 53.4043 8.76239L56.236 8.81189L56.3353 8.9109C55.8385 10.0495 55.3417 11.1386 54.7456 12.2277C54.5966 12.5248 54.2985 12.7723 53.9508 12.8218C52.8082 12.8218 51.6159 12.9208 50.523 12.8218C50.4236 12.7228 50.523 12.5743 50.5727 12.4258Z" fill="#3C4C6A"/>
<path d="M53.4026 18.1188C55.3401 14.1089 57.7246 10.198 61.053 6.78219C64.2821 3.56437 67.8092 0.940605 72.0319 0.148526C73.1745 1.07689e-05 74.4661 0.0990206 75.3603 0.8911C75.5093 1.03961 75.708 1.18813 75.9564 1.08912C78.9868 -0.0989992 83.2094 -0.544544 86.2895 0.99011C88.0779 1.83169 89.7172 2.97031 91.4063 4.00991C91.605 4.10892 91.5056 4.35645 91.4063 4.45546C90.4127 5.54457 89.6179 6.63367 88.7237 7.77229C88.6243 7.8713 88.4753 7.82179 88.3759 7.77229L83.9049 4.70298C81.8184 3.26734 79.3842 2.27724 76.7016 2.72278C76.4035 2.8713 76.5526 3.26734 76.5029 3.51486C76.5526 6.28714 75.559 8.71288 74.2177 10.9406C73.1248 12.4753 71.8828 14.1089 70.0447 14.604C69.2499 14.7525 68.455 14.505 68.0079 13.9109C66.6666 11.8812 67.8589 9.40595 68.8525 7.62377C69.9951 5.64357 71.6841 3.81189 73.5719 2.42575C73.6216 2.37625 73.7209 2.27724 73.6216 2.17823C73.4228 1.98021 73.1248 2.12872 72.8764 2.12872C69.846 3.11882 67.4118 5.84159 65.1763 8.36635C61.1524 13.2673 58.122 18.6139 56.3833 24.505C55.8368 26.6832 55.1413 30.099 57.3768 31.6337C59.364 32.6733 61.2517 31.3366 62.7421 30.0495C65.0273 27.7723 66.5176 25.099 67.1634 22.1287C67.2628 21.2376 67.5112 20 66.6666 19.406C65.9215 19.0594 65.3253 19.703 64.8286 20.198C63.686 21.5842 63.1892 23.2673 62.9905 25.0495C62.4937 25.4951 61.8479 25.7426 61.3014 26.1386C60.2582 26.8317 59.2646 27.7723 58.4201 28.7624C58.3207 28.8119 58.3207 28.6634 58.2711 28.6139C58.1717 25.297 59.3143 22.4753 61.1524 19.9505C62.593 18.2673 64.4808 16.8317 66.7163 17.3762C67.7099 17.6238 68.3557 18.6634 68.5544 19.604C68.9021 22.7228 67.6105 25.3961 66.2195 27.9208C63.9343 31.4852 60.3575 35.0495 55.8368 34.604C54.0981 34.505 52.4587 33.3168 51.7632 31.6832C50.0742 28.2673 51.2168 23.9109 52.409 20.5941L53.4026 18.1188ZM68.8028 12.2772C68.8525 12.6733 69.0015 13.0693 69.3989 13.2178C70.1441 13.4159 70.7899 12.8713 71.3364 12.4258C73.3732 10.2475 74.6648 7.72278 74.9629 4.8515C74.9629 4.40595 75.1119 3.8614 74.8635 3.51486C74.7145 3.46536 74.5158 3.56437 74.3667 3.66338C72.9757 4.60397 71.6841 5.9406 70.7402 7.27724C69.7467 8.81189 68.8525 10.3465 68.8028 12.2772Z" fill="#3C4C6A"/>
<path d="M71.6848 21.8812C73.3242 19.703 75.51 17.3268 78.292 17.1782C78.9875 17.1782 79.5836 17.4753 80.0307 18.0693C81.223 19.802 80.2295 22.0297 79.7824 23.8119C79.7327 23.9604 79.832 24.0594 79.9811 24.1089C80.5275 24.2079 81.223 24.1089 81.7198 23.8614L81.9185 23.6139C83.9056 17.9703 86.8863 12.7228 90.3638 7.72279C92.5496 4.85151 95.3812 1.8317 98.6103 0.445565C99.4052 0.19804 100.498 -0.148495 101.243 0.445565C102.088 1.13863 101.839 2.27725 101.641 3.16834C101.541 3.96042 100.647 4.05943 100.101 4.20794C100.051 4.20794 100.051 4.20794 100.001 4.15844C100.001 3.66339 100.299 3.21784 100.399 2.67329C100.448 2.42576 100.448 2.17824 100.349 1.93071C100.2 1.68319 99.9019 1.7822 99.7032 1.8317C98.6103 2.37626 97.7161 3.36636 96.8716 4.30695C93.7419 7.97032 91.4567 11.9802 89.3205 16.0891C88.625 17.5248 87.9295 18.9109 87.3334 20.3961C87.3334 20.4951 87.3334 20.5446 87.4328 20.5941C87.9295 20.5941 88.2276 20.099 88.5754 19.8515C91.3573 17.3268 93.5928 14.4555 95.6793 11.5347C96.1264 11.3367 96.6232 11.3367 97.1697 11.2871L97.269 11.3367C97.2193 11.7327 96.8716 12.0297 96.7226 12.3763C94.3877 15.6931 91.7548 18.9109 88.5754 21.7822L86.2405 23.6634C85.7437 24.1089 85.7437 24.7525 85.4953 25.297C85.0482 26.7822 84.6011 28.2673 84.5514 29.8515C84.5514 30.099 84.6508 30.3961 84.8992 30.5446C85.4953 30.7921 85.9921 30.2475 86.4392 29.8515C89.5689 26.2376 90.9599 21.8317 94.7851 18.5644C96.0271 17.5743 97.7161 16.7327 99.3058 17.4753C99.6039 17.5743 99.8026 17.9703 100.15 17.7723C100.399 17.6238 100.399 17.2277 100.746 17.2277C101.889 17.2277 103.081 17.1782 104.174 17.2772C104.274 17.3763 104.224 17.5248 104.174 17.6238L103.379 19.2079L98.5606 28.8614C98.3619 29.3069 98.0639 29.7525 98.0639 30.2475C98.1135 30.4456 98.3619 30.4951 98.5606 30.4456C99.4548 29.9505 100.101 29.1089 100.697 28.3169C101.293 27.4753 101.74 26.6337 102.336 25.7921C102.634 25.6436 103.032 25.6931 103.379 25.7426C103.578 25.9406 103.33 26.1881 103.28 26.3862C101.889 29.3069 99.9019 32.4753 96.8219 34.0594C96.1264 34.406 95.1329 34.7525 94.338 34.307C93.6922 33.8614 93.7915 33.1188 93.4935 32.4753C93.4438 32.3763 93.2948 32.4258 93.2451 32.4258C91.9535 33.5644 90.6122 34.8515 88.8237 34.3565C87.7308 33.8614 87.5818 32.5743 87.4824 31.4852C87.4328 31.4357 87.4328 31.3367 87.3831 31.3367L87.2341 31.3862C85.9921 32.8713 84.4024 34.7525 82.3159 34.5545C81.5211 34.505 80.8256 33.7129 80.5772 33.0198C79.832 30.6931 80.6269 28.1683 81.1237 25.9406C81.1237 25.7921 80.9746 25.6931 80.8753 25.6931H79.1365L78.8385 26.0396C77.5468 28.5644 76.1062 30.9901 73.8707 33.1188C72.6784 34.1584 71.2377 35 69.648 34.5545C68.3067 33.9604 67.959 32.5248 67.959 31.1881C68.2571 27.5743 69.7971 24.6535 71.6848 21.8812ZM72.1319 29.604C72.1816 30.099 72.3803 30.5941 72.8771 30.7426C73.2249 30.8416 73.5726 30.6931 73.8707 30.5941C75.51 29.3565 76.5036 27.5248 77.3978 25.7921C77.4972 25.6436 77.5468 25.3466 77.3481 25.2475C76.5036 24.802 75.6591 24.1584 74.9636 23.4159C74.8642 23.3169 74.7152 23.3169 74.6158 23.3664C74.0197 24.2079 73.5726 25.099 73.1752 25.9901C72.6784 27.1287 72.1319 28.2673 72.1319 29.604ZM76.3049 21.6337C76.3546 22.5248 77.0501 23.3169 77.8449 23.6139C77.9939 23.6634 78.292 23.7624 78.3914 23.5644C78.8881 22.4753 79.3352 21.1881 79.0869 19.901C78.9875 19.604 78.7391 19.3069 78.441 19.2079C78.143 19.1089 77.7952 19.2079 77.5468 19.3565C76.7023 19.8515 76.3049 20.7426 76.3049 21.6337ZM92.0031 29.2079C91.9535 29.604 91.8541 30.1485 92.2019 30.4456C92.3509 30.5941 92.649 30.6436 92.8477 30.5446C93.6922 30.099 94.2386 29.2079 94.7354 28.4654C96.4742 25.7921 97.7161 22.9703 98.9084 20.0495C98.9581 19.802 99.0077 19.4555 98.7594 19.2574C98.0639 18.9109 97.5174 19.703 97.0206 20.0495C94.7354 22.2772 93.5432 25.0495 92.4006 27.7723L92.0031 29.2079Z" fill="#3C4C6A"/>
<path d="M95.3313 8.01982L96.8713 6.03962L97.1197 5.8416C101.491 5.74259 104.969 3.16834 108.049 0.0990295C108.049 0.495069 107.85 0.891109 107.701 1.28715C105.664 6.03962 100.746 10.198 95.4306 10.297H94.1887C93.9403 10.2475 94.139 10 94.1887 9.90101L95.3313 8.01982Z" fill="#3C4C6A"/>
</svg>
