<svg width="85" height="64" viewBox="0 0 85 64" fill="none" xmlns="http://www.w3.org/2000/svg">
<path fill-rule="evenodd" clip-rule="evenodd" d="M41.9035 15.7869C41.2807 19.9408 37.8741 20.2316 35.8387 16.2855C27.8213 1.99541 15.9407 10.5945 28.6106 22.5163C30.8538 24.303 30.4799 25.7153 27.7383 25.5487C14.1545 20.6054 16.813 28.8719 30.7292 32.2785C32.8062 31.9877 34.3432 33.2754 32.5986 34.5632C30.7708 37.3049 41.3635 39.1742 44.2713 34.9786C55.8611 37.8033 62.1337 31.9045 55.446 31.6553C52.6209 31.2402 53.6594 29.0797 55.8198 28.8307C69.7773 24.0946 69.6525 13.0035 56.1106 21.3118C52.7874 23.4718 50.3779 22.3921 51.8315 19.4839C60.7631 5.98327 45.3516 -2.07598 41.9035 15.7869ZM45.6006 36.5571C42.4019 39.7143 27.8213 38.7588 28.943 33.3587C12.2851 27.9165 11.1636 16.6175 23.9995 21.8517C10.9142 5.65068 27.2398 -4.77581 38.2896 13.1283C40.7406 -6.68672 64.3354 -2.74063 57.1904 17.1162C70.7746 8.84963 75.9669 20.3976 59.2673 29.7861C67.4926 29.9939 55.2382 39.5896 45.6006 36.5571Z" fill="#3C4C6A"/>
<path fill-rule="evenodd" clip-rule="evenodd" d="M59.1844 48.4377H56.0684V56.0813C54.8639 61.8138 48.2588 60.7753 47.8019 56.0813L47.7601 48.3547H44.3539L44.3957 55.7904C44.6447 62.3123 57.6473 63.8076 59.1844 56.4967V48.4377ZM0.65332 60.9H3.93503V53.298C4.10106 47.939 12.2847 48.0639 12.0355 53.6718V61.0246H15.4834V53.381C13.9048 46.2361 2.6887 46.2361 0.694723 52.5087L0.65332 60.9ZM29.1918 61.1492H32.4317V53.9211C31.8918 44.8237 13.4894 46.8178 18.7235 58.4075C20.6757 61.5646 25.536 62.1877 28.3193 60.2353V59.0306C25.37 59.6952 23.1684 60.4015 21.5482 56.912C18.6819 48.5623 29.2748 46.8178 29.1086 53.9626L29.1918 61.1492ZM81.0758 61.6476H84.316V54.4195C83.7761 45.3222 65.3734 47.3162 70.6076 58.9059C72.5602 62.0631 77.4205 62.6448 80.2034 60.7337V59.529C77.254 60.1937 75.0528 60.9 73.4327 57.4104C70.5663 49.0608 81.1588 47.3162 80.9928 54.4611L81.0758 61.6476ZM69.4443 48.6039C69.4443 48.9778 69.4443 49.3516 69.4443 49.7254C66.9523 49.5178 65.623 50.5563 65.4564 52.8409L65.2492 61.3984H62.2163C62.2163 58.4075 62.2163 55.6659 62.2163 52.7165C63.0469 48.9778 65.789 47.7314 69.4443 48.6039ZM38.9121 48.2299H41.9446L41.8614 50.3901H39.0784C39.0784 53.2566 39.0784 56.1643 39.0784 59.0306C39.2446 61.357 40.6569 62.0215 42.6093 61.897C42.6093 62.2707 42.6093 62.6863 42.6093 63.06C38.8705 63.517 36.1291 62.5615 35.5474 58.4075V42.6219H38.9121V48.2299Z" fill="#3C4C6A"/>
</svg>
