<svg width="100" height="38" viewBox="0 0 100 38" fill="none" xmlns="http://www.w3.org/2000/svg">
<path d="M5.9462 25.556C3.03445 28.5361 3.03445 33.3222 5.9462 36.3022L6.03443 36.3925C6.38737 36.7538 6.82854 37.0247 7.18148 37.2956C7.71089 35.5798 8.59324 33.864 9.82852 32.5095L18.7402 23.4791C21.652 20.499 21.652 15.7129 18.7402 12.7329L5.9462 25.556ZM11.6815 4.78612L2.76975 13.8165C-0.141999 16.7966 -0.141999 21.5827 2.76975 24.5627L15.5638 11.6492C18.4755 8.66919 18.4755 3.88307 15.5638 0.903041H15.4755C15.1226 0.541824 14.6814 0.270912 14.3285 0C13.8873 1.71578 13.005 3.43155 11.6815 4.78612Z" fill="url(#paint0_linear_1435_44326)"/>
<path d="M54.9236 14.1329C51.5707 12.0559 46.806 13.3201 45.4825 13.862C44.9531 14.0426 45.0413 14.765 45.306 15.5777C45.4825 16.3002 45.8354 17.2032 45.8354 17.2032C45.8354 17.2032 49.1883 15.939 51.4824 16.7517C52.1001 16.9323 52.3648 17.3838 52.1883 18.919C52.1883 18.919 47.4236 18.1966 45.1295 20.0026C44.3354 20.6348 43.7178 21.899 43.7178 23.2536C43.7178 27.9494 49.2766 27.9494 50.2471 27.9494C52.453 27.9494 54.2177 27.5882 55.453 26.7754C55.8059 26.5045 56.8647 26.053 56.8647 24.1566V17.5644C56.7765 16.5711 56.4236 15.0359 54.9236 14.1329ZM50.1589 24.4275C48.3942 24.4275 48.2177 23.5245 48.2177 23.1633C48.2177 22.8021 48.5707 21.8087 49.9824 21.7184C51.4824 21.6281 52.1001 21.7184 52.1001 21.7184V24.0663C51.9236 24.0663 51.306 24.4275 50.1589 24.4275Z" fill="black"/>
<path d="M85.7176 14.7651C84.2176 13.2299 82.2764 13.0493 81.3058 13.0493C80.5117 13.0493 78.2176 13.1396 76.4529 14.7651C74.5118 16.6615 74.2471 19.0094 74.2471 20.2736C74.2471 25.5113 77.7764 27.9495 82.0999 27.9495C82.7176 27.9495 84.5705 27.9495 86.0705 27.2271C86.4234 27.0464 86.5999 26.8658 86.7764 26.7755C87.1293 26.5046 86.7764 25.5113 86.5117 24.8791C86.247 24.1567 85.9823 23.7955 85.9823 23.7955C85.7176 23.8858 84.2176 24.3373 82.4529 24.3373C79.9823 24.3373 78.8353 22.9828 78.8353 21.9894H85.6293C86.6881 21.9894 87.5705 21.1767 87.5705 20.0027C87.6587 18.1966 87.2176 16.21 85.7176 14.7651ZM79.0117 18.8288C79.0117 18.5579 79.1882 16.5712 81.5705 16.5712C82.4529 16.5712 83.7764 17.0227 83.7764 18.8288H79.0117Z" fill="black"/>
<path d="M61.8941 9.16602C60.0411 9.16602 59.5117 9.43693 59.5117 9.43693V26.7753C59.5117 27.4977 60.3058 27.9493 61.8941 27.9493C63.747 27.9493 64.2764 27.6783 64.2764 27.6783V10.4303C64.2764 9.61754 63.4823 9.16602 61.8941 9.16602Z" fill="black"/>
<path d="M69.3941 9.16602C67.5411 9.16602 67.0117 9.43693 67.0117 9.43693V26.7753C67.0117 27.4977 67.8058 27.9493 69.3941 27.9493C71.247 27.9493 71.7764 27.6783 71.7764 27.6783V10.4303C71.7764 9.61754 70.9823 9.16602 69.3941 9.16602Z" fill="black"/>
<path d="M90.041 26.7751C90.041 27.4975 90.8351 28.0393 92.4234 28.0393C94.2763 28.0393 94.8057 27.7684 94.8057 27.7684V18.3768C94.8057 17.7447 95.1586 17.2028 95.9527 17.2028H98.8645C99.5704 17.2028 99.3939 16.0289 99.3939 14.8549C99.3939 13.681 99.3057 13.3198 99.2174 13.2295L99.1292 13.1392H94.8057C91.8939 13.2295 90.041 14.8549 90.041 16.8416C90.041 16.8416 90.041 26.5042 90.041 26.7751Z" fill="black"/>
<path d="M41.2473 27.4977C41.6885 27.3171 41.8649 27.2268 42.0414 27.1365C42.4826 26.8656 42.1296 25.8722 41.9532 25.0595C41.7767 24.2468 41.512 23.7952 41.512 23.7952C41.2473 23.8855 40.7179 24.0661 39.8355 24.0661C39.3061 24.0661 38.0708 23.9758 38.0708 22.7116V17.8352H40.8943C41.512 17.8352 41.4238 16.8418 41.4238 15.7582C41.4238 14.3133 41.2473 14.223 41.2473 14.223H38.0708C38.0708 14.223 38.0708 12.146 38.0708 11.8751C38.0708 11.1527 37.2767 10.6108 35.6885 10.6108C33.8356 10.6108 33.3062 10.8818 33.3062 10.8818V14.223C33.3062 14.223 31.5415 14.5842 31.1003 14.7648C31.1003 14.7648 30.9238 15.3067 30.9238 16.0291C30.9238 16.5709 31.0121 17.8352 31.365 17.8352H33.3062V23.1631C33.3062 24.8789 33.7473 26.1431 34.6297 26.9559C35.512 27.7686 36.8356 28.1298 38.4238 28.1298C39.3944 28.0395 40.4532 27.7686 41.2473 27.4977Z" fill="black"/>
<defs>
<linearGradient id="paint0_linear_1435_44326" x1="10.755" y1="0" x2="10.755" y2="37.2956" gradientUnits="userSpaceOnUse">
<stop stop-color="#DA2037"/>
<stop offset="1" stop-color="#F58345"/>
</linearGradient>
</defs>
</svg>
